<svg width="155" height="146" viewBox="0 0 155 146" fill="none" xmlns="http://www.w3.org/2000/svg">
<path d="M87.292 54.9404C89.9892 55.8665 93.024 56.6775 96.3955 57.3721L109.11 60.1504C116.431 61.6785 122.886 63.7159 128.473 66.2627C134.108 68.8094 138.828 71.8422 142.633 75.3613C146.486 78.8805 149.4 82.9324 151.375 87.5166C153.35 92.1008 154.361 97.2411 154.409 102.937C154.361 111.919 152.001 119.629 147.329 126.065C142.657 132.502 135.938 137.434 127.172 140.86C118.454 144.287 107.93 146 95.6006 146C92.5712 146 89.6368 145.891 86.7979 145.678V116.822C89.3841 117.334 92.1737 117.592 95.167 117.592C99.9834 117.592 104.078 116.966 107.449 115.716C110.869 114.466 113.493 112.729 115.323 110.507C117.153 108.284 118.093 105.737 118.142 102.866C118.093 100.181 117.226 97.8886 115.54 95.9902C113.854 94.0455 111.253 92.3783 107.737 90.9893C104.27 89.5539 99.8385 88.2342 94.4443 87.0303L86.7979 85.3125V54.7637C86.9615 54.8219 87.1254 54.8832 87.292 54.9404ZM95.6729 0C107.136 3.11244e-05 117.082 1.8753 125.511 5.62598C133.988 9.33038 140.562 14.5397 145.234 21.2539C149.906 27.9681 152.29 35.7476 152.387 44.5918H118.142C117.66 39.4982 115.516 35.5394 111.711 32.7148C107.954 29.844 102.584 28.4082 95.6006 28.4082C92.2654 28.4082 89.3311 28.7102 86.7979 29.3125V0.411133C89.6655 0.137704 92.6239 0 95.6729 0Z" fill="#D4AF37"/>
<path d="M71.292 39.0537L55.7197 88.7559H71.292V115.46H47.3525L37.7842 146H0L49.0771 0.545898H71.292V39.0537Z" fill="#D4AF37"/>
</svg>
